<svg width="21" height="20" viewBox="0 0 21 20" fill="none" xmlns="http://www.w3.org/2000/svg">
<g id="Group 131271">
<path id="Vector" d="M2.78198 12.0447C2.78198 15.2283 4.1359 17.9283 7.10407 17.9283H13.8929C16.8611 17.9283 18.215 15.2289 18.215 12.0447" stroke="#0D263C" stroke-width="1.5" stroke-linecap="round" stroke-linejoin="round"/>
<path id="Vector_2" d="M19.3253 11.9429H1.67175" stroke="#0D263C" stroke-width="1.5" stroke-linecap="round" stroke-linejoin="round"/>
<path id="Vector_3" d="M16.773 19L16.1615 17.9492" stroke="#0D263C" stroke-width="1.5" stroke-linecap="round" stroke-linejoin="round"/>
<path id="Vector_4" d="M4.22412 19L4.8356 17.9492" stroke="#0D263C" stroke-width="1.5" stroke-linecap="round" stroke-linejoin="round"/>
<path id="Vector_5" d="M7.35344 3.24557C7.35344 2.01009 6.34283 1 5.10787 1C3.87239 1 2.8623 2.01217 2.8623 3.24557V11.2642" stroke="#0D263C" stroke-width="1.5" stroke-linecap="round" stroke-linejoin="round"/>
<path id="Vector_6" d="M10.1594 4.58324C9.7999 3.59611 8.88737 2.97993 8.10946 3.26324L6.83642 3.72654C6.0585 4.00985 5.75537 5.06793 6.11485 6.05559" stroke="#0D263C" stroke-width="1.5" stroke-linecap="round" stroke-linejoin="round"/>
<path id="Vector_7" d="M5.54309 6.38963L10.772 4.48633M13.4245 16.8161C15.3967 16.8161 16.4991 15.3615 16.8455 13.4206" stroke="#0D263C" stroke-width="1.5" stroke-linecap="round" stroke-linejoin="round"/>
</g>
</svg>
