<svg width="22" height="20" viewBox="0 0 22 20" fill="none" xmlns="http://www.w3.org/2000/svg">
<g id="Group 131267">
<path id="Vector" d="M20.4682 14.6738V18.9999H17.5838V16.8078H3.91324V18.9999H1.02881V14.6738" stroke="#0D263C" stroke-width="1.5" stroke-linecap="round" stroke-linejoin="round"/>
<path id="Vector_2" d="M4.04102 1H17.4561" stroke="#0D263C" stroke-width="1.5" stroke-linecap="round" stroke-linejoin="round"/>
<path id="Vector_3" d="M17.4561 1C18.1766 1 18.766 1.59113 18.766 2.30997" stroke="#0D263C" stroke-width="1.5" stroke-linecap="round" stroke-linejoin="round"/>
<path id="Vector_4" d="M18.7666 2.31006V7.88678" stroke="#0D263C" stroke-width="1.5" stroke-linecap="round" stroke-linejoin="round"/>
<path id="Vector_5" d="M17.017 7.66629V6.82142C17.017 6.02571 16.3654 5.37524 15.5708 5.37524H12.2925C11.499 5.37524 10.8463 6.02797 10.8463 6.82142V7.37242" stroke="#0D263C" stroke-width="1.5" stroke-linecap="round" stroke-linejoin="round"/>
<path id="Vector_6" d="M10.6508 7.37242V6.82142C10.6508 6.02571 9.99805 5.37524 9.2046 5.37524H5.92627C5.13226 5.37524 4.4801 6.02741 4.4801 6.82142V7.66629" stroke="#0D263C" stroke-width="1.5" stroke-linecap="round" stroke-linejoin="round"/>
<path id="Vector_7" d="M2.73047 7.88678V2.31006" stroke="#0D263C" stroke-width="1.5" stroke-linecap="round" stroke-linejoin="round"/>
<path id="Vector_8" d="M2.73047 2.30997C2.73047 1.58943 3.3199 1 4.04044 1" stroke="#0D263C" stroke-width="1.5" stroke-linecap="round" stroke-linejoin="round"/>
<path id="Vector_9" d="M2.71009 8.27257C7.7861 7.439 15.6002 7.53169 18.8237 8.27257L20.497 14.3698H1L2.71009 8.27257Z" stroke="#0D263C" stroke-width="1.5" stroke-linecap="round" stroke-linejoin="round"/>
</g>
</svg>
