<svg width="161" height="12" viewBox="0 0 161 12" fill="none" xmlns="http://www.w3.org/2000/svg">
<g id="Caurosel">
<g id="Group 131256">
<circle id="Ellipse 54" cx="102.727" cy="6" r="3" fill="#A8B0B7"/>
<circle id="Ellipse 55" cx="81.7269" cy="6" r="3" fill="#A8B0B7"/>
<circle id="Ellipse 56" cx="59.2269" cy="6" r="4.5" fill="black"/>
</g>
<g id="Group 131255">
<path id="Vector" d="M153.932 11.7844C154.077 11.9291 154.266 12 154.455 12C154.644 12 154.833 11.9291 154.977 11.7844L160.237 6.52492C160.272 6.48948 160.302 6.45109 160.328 6.4127C160.34 6.39498 160.346 6.37726 160.358 6.35954C160.373 6.33592 160.387 6.31229 160.396 6.28571C160.405 6.26209 160.411 6.23846 160.42 6.21484C160.426 6.19417 160.435 6.17349 160.44 6.14987C160.458 6.05537 160.458 5.95496 160.44 5.86046C160.435 5.83684 160.429 5.81617 160.42 5.7955C160.414 5.77187 160.408 5.74825 160.396 5.72462C160.384 5.69804 160.37 5.67442 160.358 5.65079C160.349 5.63307 160.34 5.61536 160.328 5.59764C160.302 5.55629 160.269 5.5179 160.237 5.48542L154.974 0.217054C154.685 -0.0723514 154.218 -0.0723514 153.929 0.217054C153.639 0.50646 153.639 0.973053 153.929 1.26246L157.93 5.26393H145.465C145.058 5.26393 144.727 5.59468 144.727 6.00221C144.727 6.40974 145.058 6.74049 145.465 6.74049H157.93L153.929 10.742C153.639 11.0314 153.639 11.498 153.929 11.7874L153.932 11.7844Z" fill="black"/>
</g>
<g id="Group 131257">
<path id="Vector_2" d="M6.52206 11.7844C6.37735 11.9291 6.18836 12 5.99936 12C5.81036 12 5.62136 11.9291 5.47665 11.7844L0.21715 6.52492C0.181712 6.48948 0.152181 6.45109 0.125602 6.4127C0.11379 6.39498 0.107883 6.37726 0.0960712 6.35954C0.0813055 6.33592 0.0665398 6.31229 0.0576801 6.28571C0.0488214 6.26209 0.0429153 6.23846 0.0340567 6.21484C0.0281496 6.19417 0.0192909 6.17349 0.0133848 6.14987C-0.00433445 6.05537 -0.00433445 5.95496 0.0133848 5.86046C0.0192909 5.83684 0.025197 5.81617 0.0340567 5.7955C0.0399628 5.77187 0.0458679 5.74825 0.0576801 5.72462C0.0694933 5.69804 0.084259 5.67442 0.0960712 5.65079C0.104931 5.63307 0.11379 5.61536 0.125602 5.59764C0.152181 5.55629 0.184665 5.5179 0.21715 5.48542L5.47961 0.217054C5.76901 -0.0723514 6.23561 -0.0723514 6.52501 0.217054C6.81442 0.50646 6.81442 0.973053 6.52501 1.26246L2.52354 5.26393H14.9886C15.3962 5.26393 15.7269 5.59468 15.7269 6.00221C15.7269 6.40974 15.3962 6.74049 14.9886 6.74049H2.52354L6.52501 10.742C6.81442 11.0314 6.81442 11.498 6.52501 11.7874L6.52206 11.7844Z" fill="#A8B0B7"/>
</g>
</g>
</svg>
