<svg width="14" height="15" viewBox="0 0 14 15" fill="none" xmlns="http://www.w3.org/2000/svg">
<rect width="14" height="15" fill="#1E1E1E"/>
<g id="Home 01" clip-path="url(#clip0_0_1)">
<rect width="1920" height="9362" transform="translate(-835 -3193)" fill="#EAF0F5"/>
<g id="Explore Elevated Living.">
<g id="Background">
<rect id="Rectangle 142" x="-835" y="-585" width="1920" height="1018" fill="#DFE7ED"/>
</g>
<g id="Property 02 (Hover)">
<g id="Rectangle 151" filter="url(#filter0_d_0_1)">
<path d="M-278 -148.6C-278 -170.442 -278 -181.363 -273.749 -189.706C-270.01 -197.044 -264.044 -203.01 -256.706 -206.749C-248.363 -211 -237.442 -211 -215.6 -211H47.1C68.942 -211 79.8631 -211 88.2056 -206.749C95.5439 -203.01 101.51 -197.044 105.249 -189.706C109.5 -181.363 109.5 -170.442 109.5 -148.6V158.6C109.5 180.442 109.5 191.363 105.249 199.706C101.51 207.044 95.5439 213.01 88.2056 216.749C79.8631 221 68.942 221 47.1 221H-215.6C-237.442 221 -248.363 221 -256.706 216.749C-264.044 213.01 -270.01 207.044 -273.749 199.706C-278 191.363 -278 180.442 -278 158.6V-148.6Z" fill="#F9FCFF"/>
<path d="M-277.5 -148.6C-277.5 -159.529 -277.5 -167.696 -276.97 -174.174C-276.442 -180.647 -275.387 -185.39 -273.304 -189.479C-269.613 -196.723 -263.723 -202.613 -256.479 -206.304C-252.39 -208.387 -247.647 -209.442 -241.174 -209.97C-234.696 -210.5 -226.529 -210.5 -215.6 -210.5H47.1C58.0293 -210.5 66.1962 -210.5 72.6744 -209.97C79.1468 -209.442 83.8896 -208.387 87.9786 -206.304C95.2229 -202.613 101.113 -196.723 104.804 -189.479C106.887 -185.39 107.941 -180.647 108.47 -174.174C109 -167.696 109 -159.529 109 -148.6V158.6C109 169.529 109 177.696 108.47 184.174C107.941 190.647 106.887 195.39 104.804 199.479C101.113 206.723 95.2229 212.613 87.9786 216.304C83.8896 218.387 79.1468 219.441 72.6744 219.97C66.1962 220.5 58.0293 220.5 47.1 220.5H-215.6C-226.529 220.5 -234.696 220.5 -241.174 219.97C-247.647 219.441 -252.39 218.387 -256.479 216.304C-263.723 212.613 -269.613 206.723 -273.304 199.479C-275.387 195.39 -276.442 190.647 -276.97 184.174C-277.5 177.696 -277.5 169.529 -277.5 158.6V-148.6Z" stroke="#C7D5E1"/>
</g>
<g id="Image">
<path d="M-263 -148C-263 -164.802 -263 -173.202 -259.73 -179.62C-256.854 -185.265 -252.265 -189.854 -246.62 -192.73C-240.202 -196 -231.802 -196 -215 -196H46.5C63.3016 -196 71.7024 -196 78.1197 -192.73C83.7646 -189.854 88.354 -185.265 91.2302 -179.62C94.5 -173.202 94.5 -164.802 94.5 -148V16C94.5 32.8016 94.5 41.2024 91.2302 47.6197C88.354 53.2646 83.7646 57.854 78.1197 60.7302C71.7024 64 63.3016 64 46.5 64H-215C-231.802 64 -240.202 64 -246.62 60.7302C-252.265 57.854 -256.854 53.2646 -259.73 47.6197C-263 41.2024 -263 32.8016 -263 16V-148Z" fill="#868C92"/>
<path d="M-263 -148C-263 -164.802 -263 -173.202 -259.73 -179.62C-256.854 -185.265 -252.265 -189.854 -246.62 -192.73C-240.202 -196 -231.802 -196 -215 -196H46.5C63.3016 -196 71.7024 -196 78.1197 -192.73C83.7646 -189.854 88.354 -185.265 91.2302 -179.62C94.5 -173.202 94.5 -164.802 94.5 -148V16C94.5 32.8016 94.5 41.2024 91.2302 47.6197C88.354 53.2646 83.7646 57.854 78.1197 60.7302C71.7024 64 63.3016 64 46.5 64H-215C-231.802 64 -240.202 64 -246.62 60.7302C-252.265 57.854 -256.854 53.2646 -259.73 47.6197C-263 41.2024 -263 32.8016 -263 16V-148Z" fill="url(#paint0_linear_0_1)" fill-opacity="0.7"/>
</g>
<g id="Group 133682">
<g id="Group 133681">
<g id="Ellipse 64" filter="url(#filter1_b_0_1)">
<circle cx="6.5" cy="7.5" r="19.5" fill="black" fill-opacity="0.6"/>
<circle cx="6.5" cy="7.5" r="19" stroke="#494949"/>
</g>
<g id="Group 131458">
<path id="Vector" d="M12.4876 0H0.650344C0.291685 0 0 0.291685 0 0.650344V14.3497C0 14.615 0.158469 14.851 0.40404 14.9513C0.482726 14.9835 0.565437 15 0.650344 15C0.823452 15 0.992534 14.929 1.11441 14.8053L6.56932 9.25011L12.0242 14.8057C12.1457 14.9294 12.3148 15 12.4883 15C12.5728 15 12.6555 14.9839 12.7342 14.9517C12.9798 14.8514 13.1383 14.615 13.1383 14.3497V0.650344C13.1383 0.291685 12.8466 0 12.4879 0H12.4876ZM1.30032 12.7591V1.30032H11.8372V12.7591L7.03265 7.86598C6.91114 7.74228 6.74206 7.67128 6.56895 7.67128C6.39584 7.67128 6.22676 7.74228 6.10489 7.86598L1.30032 12.7591Z" fill="white"/>
</g>
</g>
</g>
</g>
</g>
</g>
<defs>
<filter id="filter0_d_0_1" x="-298" y="-231" width="427.5" height="472" filterUnits="userSpaceOnUse" color-interpolation-filters="sRGB">
<feFlood flood-opacity="0" result="BackgroundImageFix"/>
<feColorMatrix in="SourceAlpha" type="matrix" values="0 0 0 0 0 0 0 0 0 0 0 0 0 0 0 0 0 0 127 0" result="hardAlpha"/>
<feOffset/>
<feGaussianBlur stdDeviation="10"/>
<feComposite in2="hardAlpha" operator="out"/>
<feColorMatrix type="matrix" values="0 0 0 0 0.683715 0 0 0 0 0.751689 0 0 0 0 0.808333 0 0 0 1 0"/>
<feBlend mode="normal" in2="BackgroundImageFix" result="effect1_dropShadow_0_1"/>
<feBlend mode="normal" in="SourceGraphic" in2="effect1_dropShadow_0_1" result="shape"/>
</filter>
<filter id="filter1_b_0_1" x="-22" y="-21" width="57" height="57" filterUnits="userSpaceOnUse" color-interpolation-filters="sRGB">
<feFlood flood-opacity="0" result="BackgroundImageFix"/>
<feGaussianBlur in="BackgroundImageFix" stdDeviation="4.5"/>
<feComposite in2="SourceAlpha" operator="in" result="effect1_backgroundBlur_0_1"/>
<feBlend mode="normal" in="SourceGraphic" in2="effect1_backgroundBlur_0_1" result="shape"/>
</filter>
<linearGradient id="paint0_linear_0_1" x1="-84.25" y1="-196" x2="-84.25" y2="64" gradientUnits="userSpaceOnUse">
<stop stop-opacity="0"/>
<stop offset="1"/>
</linearGradient>
<clipPath id="clip0_0_1">
<rect width="1920" height="9362" fill="white" transform="translate(-835 -3193)"/>
</clipPath>
</defs>
</svg>
