<svg width="75" height="13" viewBox="0 0 75 13" fill="none" xmlns="http://www.w3.org/2000/svg">
<g id="rating">
<path id="star" d="M6.5763 0.452219L4.77801 3.81352L0.754579 4.35428C0.0330598 4.45075 -0.256099 5.27076 0.26714 5.74043L3.178 8.35534L2.48953 12.0492C2.3656 12.7169 3.12843 13.217 3.76733 12.9048L7.36667 11.1607L10.966 12.9048C11.6049 13.2145 12.3677 12.7169 12.2438 12.0492L11.5553 8.35534L14.4662 5.74043C14.9894 5.27076 14.7003 4.45075 13.9788 4.35428L9.95532 3.81352L8.15703 0.452219C7.83483 -0.146926 6.90126 -0.154542 6.5763 0.452219Z" fill="#FF7A00"/>
<path id="star_2" d="M26.5096 0.452219L24.7113 3.81352L20.6879 4.35428C19.9664 4.45075 19.6772 5.27076 20.2005 5.74043L23.1113 8.35534L22.4228 12.0492C22.2989 12.7169 23.0618 13.217 23.7007 12.9048L27.3 11.1607L30.8993 12.9048C31.5382 13.2145 32.3011 12.7169 32.1771 12.0492L31.4887 8.35534L34.3995 5.74043C34.9228 5.27076 34.6336 4.45075 33.9121 4.35428L29.8886 3.81352L28.0904 0.452219C27.7681 -0.146926 26.8346 -0.154542 26.5096 0.452219Z" fill="#FF7A00"/>
<path id="star_3" d="M46.443 0.452219L44.6447 3.81352L40.6212 4.35428C39.8997 4.45075 39.6106 5.27076 40.1338 5.74043L43.0447 8.35534L42.3562 12.0492C42.2323 12.7169 42.9951 13.217 43.634 12.9048L47.2333 11.1607L50.8327 12.9048C51.4716 13.2145 52.2344 12.7169 52.1105 12.0492L51.422 8.35534L54.3329 5.74043C54.8561 5.27076 54.5669 4.45075 53.8454 4.35428L49.822 3.81352L48.0237 0.452219C47.7015 -0.146926 46.7679 -0.154542 46.443 0.452219Z" fill="#FF7A00"/>
<path id="star_4" d="M66.3763 0.452219L64.578 3.81352L60.5546 4.35428C59.833 4.45075 59.5439 5.27076 60.0671 5.74043L62.978 8.35534L62.2895 12.0492C62.1656 12.7169 62.9284 13.217 63.5673 12.9048L67.1667 11.1607L70.766 12.9048C71.4049 13.2145 72.1677 12.7169 72.0438 12.0492L71.3553 8.35534L74.2662 5.74043C74.7894 5.27076 74.5003 4.45075 73.7787 4.35428L69.7553 3.81352L67.957 0.452219C67.6348 -0.146926 66.7012 -0.154542 66.3763 0.452219Z" fill="#FF7A00"/>
</g>
</svg>
