<svg width="14" height="13" viewBox="0 0 14 13" fill="none" xmlns="http://www.w3.org/2000/svg">
<g id="Group 133680">
<path id="Vector" d="M0 6.5C0 6.97357 0.383571 7.35714 0.857143 7.35714H10.3157L6.63643 11.0364C6.30214 11.3707 6.30214 11.9129 6.63643 12.2493C6.80357 12.4164 7.02214 12.5 7.24286 12.5C7.46357 12.5 7.68214 12.4164 7.84929 12.2493L12.9921 7.10643C13.0329 7.06571 13.0671 7.02286 13.0993 6.97571C13.1121 6.95429 13.1229 6.93286 13.1336 6.91143C13.1486 6.88357 13.1657 6.85786 13.1764 6.82786C13.1871 6.8 13.1957 6.77 13.2043 6.74C13.2107 6.71643 13.2214 6.69286 13.2257 6.66714C13.2471 6.55571 13.2471 6.44214 13.2257 6.33071C13.2214 6.305 13.2107 6.28143 13.2043 6.25786C13.1957 6.22786 13.1893 6.2 13.1764 6.17C13.1636 6.14 13.1486 6.11429 13.1336 6.08643C13.1207 6.065 13.1121 6.04143 13.0993 6.02214C13.0671 5.975 13.0329 5.93 12.9921 5.89143L7.84929 0.750714C7.515 0.416429 6.97071 0.416429 6.63643 0.750714C6.30214 1.085 6.30214 1.62714 6.63643 1.96357L10.3157 5.64286H0.857143C0.383571 5.64286 0 6.02643 0 6.5Z" fill="black"/>
</g>
</svg>
