<svg width="16" height="15" viewBox="0 0 16 15" fill="none" xmlns="http://www.w3.org/2000/svg">
<g id="Group 25727">
<path id="Vector" d="M12.1603 10.5402L11.9259 9.51702L12.726 8.82553C12.726 8.82553 12.7268 8.82456 12.7272 8.82435L14.8917 6.95367L15.7336 6.22618C16.1737 5.8454 16.0561 5.49034 15.4723 5.43698L13.4802 5.25527L10.4264 4.97649L9.21307 2.20496L8.42198 0.3976C8.19002 -0.132533 7.81005 -0.132533 7.57808 0.3976L6.78677 2.20496L5.57357 4.97649L2.51933 5.25527L0.527778 5.43698C-0.0564979 5.49044 -0.173789 5.84562 0.267059 6.22672L3.27251 8.82446C3.27251 8.82446 3.27295 8.82499 3.27328 8.82521L4.07395 9.51723L3.83991 10.5393C3.8398 10.5399 3.83969 10.5406 3.83958 10.5412L2.96017 14.3809C2.83101 14.9441 3.13823 15.1638 3.64279 14.8689L6.60523 13.1383L8.00009 12.3234L10.6373 13.8641L12.3576 14.8687C12.8617 15.1634 13.1688 14.944 13.0404 14.3813L12.6002 12.4608L12.1607 10.5412C12.1607 10.5412 12.1603 10.5407 12.1603 10.5404V10.5402Z" fill="#F6C800"/>
</g>
</svg>
